#!OML:ASF H:\charlestonDancing\Project 1\Capture day 1\Session 1\femaleDancer.ASF
:FULLY-SPECIFIED
:DEGREES
32
root 1.28693 17.9034 -0.755694 94.49 -84.5458 -81.6399
lowerback 16.216 2.10472 8.50311
upperback 3.07039 4.10217 1.49989
thorax -5.28372 1.80017 -4.0129
lowerneck 1.78039 -1.32713 -0.94338
upperneck -0.111619 -1.84049 -3.53468
head -0.352712 -0.911913 -0.906297
rclavicle 8.18993e-014 6.36111e-015
rhumerus -54.5087 -11.6949 -65.6105
rradius 24.5162
rwrist 22.3414
rhand -36.385 -40.6597
rfingers 7.12502
rthumb -9.48132 -70.4264
lclavicle 8.18993e-014 6.36111e-015
lhumerus -50.4398 25.2372 3.51299
lradius 154.002
lwrist 15.3975
lhand -3.81943 14.0319
lfingers 7.12502
lthumb 21.9274 42.8092
rfemur -15.5127 -6.62998 27.9804
rtibia 43.6818
rfoot -10.0344 1.29132
rtoes -28.2923
lfemur -37.8641 0.45647 -20.7136
ltibia 40.6749
lfoot -3.21755 -9.64867
ltoes -11.8175
33
root 1.40777 17.8443 -0.788144 89.1816 -84.5272 -75.7861
lowerback 16.4488 1.94042 8.7874
upperback 2.90114 3.96728 1.30859
thorax -5.5752 1.71334 -4.36957
lowerneck 1.70318 -1.43727 -1.0398
upperneck -0.495584 -1.995 -3.2419
head -0.454519 -0.984268 -0.798035
rclavicle 3.37934e-014 2.78299e-014
rhumerus -56.0866 -13.4212 -62.846
rradius 22.6015
rwrist 25.9238
rhand -35.5474 -43.0359
rfingers 7.12502
rthumb -8.67304 -72.8377
lclavicle 3.37934e-014 2.78299e-014
lhumerus -49.083 25.9474 2.51695
lradius 153.335
lwrist 15.8085
lhand -3.85611 14.3203
lfingers 7.12502
lthumb 21.8921 43.1018
rfemur -13.7869 -7.29389 28.2331
rtibia 39.6442
rfoot -13.4494 1.14204
rtoes -28.458
lfemur -39.7071 0.326443 -20.7027
ltibia 42.1069
lfoot -2.45504 -10.0468
ltoes -10.6814
34
root 1.54266 17.7744 -0.817806 82.0814 -84.2778 -68.1133
lowerback 16.6324 1.75425 9.2322
upperback 2.76139 3.83233 1.28876
thorax -5.81221 1.62439 -4.6283
lowerneck 1.71224 -1.58463 -1.28299
upperneck -1.05078 -2.21363 -3.09271
head -0.623735 -1.08549 -0.708229
rclavicle -4.17448e-014 3.18055e-015
rhumerus -57.5625 -15.3389 -59.452
rradius 21.0321
rwrist 29.1056
rhand -36.7661 -42.4997
rfingers 7.12502
rthumb -9.84903 -72.2494
lclavicle -4.17448e-014 3.18055e-015
lhumerus -47.6663 26.7609 1.78494
lradius 152.638
lwrist 16.4412
lhand -4.02434 14.5963
lfingers 7.12502
lthumb 21.7306 43.3966
rfemur -12.6473 -8.61677 28.7158
rtibia 36.1345
rfoot -16.8194 0.672644
rtoes -29.5021
lfemur -41.8156 -0.0519437 -20.5545
ltibia 43.7532
lfoot -1.58127 -10.0713
ltoes -9.08573
35
root 1.68588 17.6924 -0.839506 75.6305 -83.9667 -61.0954
lowerback 16.762 1.57533 9.66775
upperback 2.64656 3.70386 1.36612
thorax -6.00205 1.54022 -4.77416
lowerneck 1.71335 -1.6889 -1.71632
upperneck -1.55046 -2.38172 -3.02572
head -0.772838 -1.16131 -0.612796
rclavicle 5.08889e-014 -3.97569e-015
rhumerus -58.9905 -17.3307 -55.4832
rradius 19.7111
rwrist 32.3229
rhand -36.8678 -43.0866
rfingers 7.12502
rthumb -9.94707 -72.8316
lclavicle 5.08889e-014 -3.97569e-015
lhumerus -46.3839 27.5406 1.25539
lradius 151.925
lwrist 16.9765
lhand -4.25562 15.0291
lfingers 7.12502
lthumb 21.5085 43.8549
rfemur -12.2196 -9.96104 29.2314
rtibia 33.5074
rfoot -18.7266 0.521114
rtoes -25.2753
lfemur -44.0715 -0.55193 -20.4511
ltibia 45.4742
lfoot -0.658301 -9.73135
ltoes -8.18494
36
root 1.82625 17.618 -0.863605 72.4795 -83.853 -57.6523
lowerback 17.1833 1.54877 9.83789
upperback 2.58485 3.75561 1.43882
thorax -6.28493 1.54246 -4.82533
lowerneck 1.82291 -1.74225 -2.07479
upperneck -2.06867 -2.48963 -3.08636
head -0.94916 -1.20402 -0.568373
rclavicle -3.45885e-014 -1.74931e-014
rhumerus -60.441 -19.4 -51.2346
rradius 18.6608
rwrist 35.2961
rhand -35.894 -44.4698
rfingers 7.12502
rthumb -9.00748 -74.2575
lclavicle -3.45885e-014 -1.74931e-014
lhumerus -45.2209 28.4223 0.629813
lradius 151.188
lwrist 17.835
lhand -3.65227 15.2614
lfingers 7.12502
lthumb 22.0878 44.0198
rfemur -12.0128 -10.8263 29.6124
rtibia 31.6479
rfoot -20.5132 0.115828
rtoes -21.8132
lfemur -46.0275 -0.826203 -20.4215
ltibia 47.2167
lfoot -0.0989953 -9.43576
ltoes -8.85859
37
root 1.9691 17.5565 -0.895789 71.7685 -84.3685 -56.9774
lowerback 18.0895 1.72023 9.27143
upperback 2.5806 3.97017 1.38321
thorax -6.78702 1.62801 -4.66324
lowerneck 2.17492 -1.7581 -2.2135
upperneck -2.84796 -2.56417 -3.21506
head -1.25485 -1.22213 -0.578483
rclavicle 2.3059e-014 2.54444e-014
rhumerus -61.7215 -21.3841 -47.1147
rradius 17.7417
rwrist 37.9139
rhand -36.6702 -44.1947
rfingers 7.12502
rthumb -9.75651 -73.9487
lclavicle 2.3059e-014 2.54444e-014
lhumerus -44.3111 29.3254 -0.157392
lradius 150.54
lwrist 19.1775
lhand -2.91106 15.3166
lfingers 7.12502
lthumb 22.7993 43.9892
rfemur -11.8377 -11.0023 29.4661
rtibia 30.4827
rfoot -21.903 -0.982287
rtoes -20.0718
lfemur -47.4051 -0.928531 -20.7313
ltibia 48.7428
lfoot -0.101565 -9.50528
ltoes -10.8299
38
root 2.075 17.5095 -0.908829 75.6254 -84.0069 -60.6088
lowerback 18.3176 1.79262 9.81364
upperback 2.58249 4.19646 1.51331
thorax -6.84584 1.71675 -4.88629
lowerneck 2.42762 -1.70099 -2.29401
upperneck -3.57396 -2.53638 -3.32202
head -1.53034 -1.1905 -0.594709
rclavicle -3.97569e-015 -2.06736e-014
rhumerus -62.7012 -23.41 -43.0671
rradius 16.9061
rwrist 40.6144
rhand -36.8506 -44.8849
rfingers 7.12502
rthumb -9.93054 -74.6307
lclavicle -3.97569e-015 -2.06736e-014
lhumerus -43.7242 30.0492 -0.85941
lradius 150.028
lwrist 20.2214
lhand -2.76786 15.4132
lfingers 7.12502
lthumb 22.9367 44.0688
rfemur -11.9643 -11.1988 30.2821
rtibia 29.6798
rfoot -22.9899 -1.64331
rtoes -17.8312
lfemur -48.7817 -1.05251 -19.8407
ltibia 50.0284
lfoot -0.502949 -10.2708
ltoes -11.9793
39
root 2.16626 17.4897 -0.925816 82.0236 -83.9414 -66.6082
lowerback 18.3662 1.97623 9.89286
upperback 2.52394 4.46399 1.54861
thorax -6.89293 1.8386 -4.95448
lowerneck 2.53907 -1.58434 -2.40769
upperneck -4.05295 -2.41124 -3.32617
head -1.70163 -1.1167 -0.577729
rclavicle -4.85035e-014 -1.35174e-014
rhumerus -63.2292 -25.2857 -39.774
rradius 16.4391
rwrist 42.2819
rhand -36.354 -45.8902
rfingers 7.12502
rthumb -9.45141 -75.6582
lclavicle -4.85035e-014 -1.35174e-014
lhumerus -43.3026 30.4986 -1.28192
lradius 149.617
lwrist 20.6301
lhand -2.99903 15.433
lfingers 7.12502
lthumb 22.7149 44.1159
rfemur -12.3876 -10.8367 30.8368
rtibia 29.1125
rfoot -23.6505 -2.12149
rtoes -16.1075
lfemur -50.0143 -0.981055 -19.0508
ltibia 50.9112
lfoot -1.6297 -11.6622
ltoes -15.8503
40
root 2.23728 17.4964 -0.932206 86.493 -84.1726 -70.6125
lowerback 18.2331 2.09441 9.73361
upperback 2.39359 4.58013 1.39223
thorax -6.94573 1.89483 -5.05671
lowerneck 2.79319 -1.48824 -2.46736
upperneck -4.39437 -2.30367 -3.22498
head -1.85426 -1.05466 -0.536005
rclavicle -4.96962e-014 5.56597e-015
rhumerus -63.4287 -27.0195 -37.3138
rradius 16.2582
rwrist 42.6832
rhand -35.5552 -45.5571
rfingers 7.12502
rthumb -8.6806 -75.3586
lclavicle -4.96962e-014 5.56597e-015
lhumerus -42.8432 30.7077 -1.37566
lradius 149.298
lwrist 20.5954
lhand -3.27235 15.4091
lfingers 7.12502
lthumb 22.4526 44.124
rfemur -12.8203 -10.7103 30.9155
rtibia 28.4498
rfoot -23.843 -2.36998
rtoes -15.5953
lfemur -50.989 -1.07471 -18.7807
ltibia 51.5052
lfoot -1.814 -15.0883
ltoes -15.1503
41
root 2.2831 17.5246 -0.926792 87.1723 -84.5489 -71.0844
lowerback 18.0977 2.04759 9.5284
upperback 2.31119 4.46319 1.17337
thorax -6.97803 1.84248 -5.14935
lowerneck 3.16451 -1.39118 -2.39896
upperneck -4.59649 -2.18768 -3.16993
head -1.98601 -0.990594 -0.530293
rclavicle -1.98785e-014 -3.49861e-014
rhumerus -63.2423 -28.481 -35.7696
rradius 16.1489
rwrist 42.9964
rhand -35.614 -45.4484
rfingers 7.12502
rthumb -8.73736 -75.2476
lclavicle -1.98785e-014 -3.49861e-014
lhumerus -42.4681 30.7647 -1.0038
lradius 149.202
lwrist 20.1291
lhand -3.37717 15.4017
lfingers 7.12502
lthumb 22.3519 44.1287
rfemur -12.9481 -10.8913 30.633
rtibia 27.8481
rfoot -23.6265 -2.51463
rtoes -15.76
lfemur -51.3186 -1.45904 -18.9506
ltibia 51.8355
lfoot -1.84848 -17.869
ltoes -15.2391
